<svg xmlns="http://www.w3.org/2000/svg" xmlns:xlink="http://www.w3.org/1999/xlink" width="400" height="400" viewBox="0 0 400 400">
<rect data-name="background" width="100%" height="100%" fill="#bcfbc5"/><g data-name="icon" fill="#857a7a" data="id:6424005" transform="translate(114.98689429708045,62.80278034535074) scale(0.16603960396039605)">
  <g><path d="M496,307.83h32c6.62,0,12,5.38,12,12h40c0-27.33-21.19-49.78-48-51.83v-28h-40v28c-26.81,2.05-48,24.51-48,51.83   c0,28.67,23.33,52,52,52h32c6.62,0,12,5.38,12,12s-5.38,12-12,12h-32c-6.62,0-12-5.38-12-12h-40c0,27.33,21.19,49.78,48,51.83V464   h40v-28.34c26.81-2.05,48-24.51,48-51.83c0-28.67-23.33-52-52-52h-32c-6.62,0-12-5.38-12-12S489.38,307.83,496,307.83z"/><path d="M745.74,154.27C717.22,124.43,679.08,108,638.37,108c-40.71,0-78.85,16.43-107.37,46.27L512,174.14l-18.99-19.87   C464.48,124.43,426.35,108,385.63,108c0,0,0,0,0,0c-40.71,0-78.85,16.43-107.38,46.27c-58.52,61.21-58.52,160.81,0,222.02   L486.88,594.5c6.52,6.82,15.68,10.74,25.12,10.74s18.6-3.91,25.12-10.74l208.63-218.21C804.27,315.08,804.27,215.48,745.74,154.27z    M512,562.89L307.17,348.65c-43.95-45.97-43.95-120.77,0-166.74c20.91-21.87,48.77-33.91,78.46-33.91   c29.69,0,57.56,12.04,78.46,33.91l33.45,34.99c3.77,3.95,9,6.18,14.46,6.18s10.68-2.23,14.46-6.18l33.45-34.99   c20.91-21.87,48.77-33.91,78.46-33.91c29.69,0,57.56,12.04,78.46,33.91c43.95,45.97,43.95,120.77,0,166.74L512,562.89z"/><path d="M856,331.83c-33.08,0-60,26.92-60,60v140.79c-8.62-4.11-18.13-6.19-28.02-6c-17.15,0.32-33.03,7.42-44.7,19.99   L567.36,714.52c-17.64,19-27.36,43.74-27.36,69.67v111.65c0,11.05,8.95,20,20,20h192c11.05,0,20-8.95,20-20V838.5l121.8-162.4   c14.31-19.09,22.2-42.74,22.2-66.59V391.83C916,358.75,889.08,331.83,856,331.83z M876,609.5c0,15.26-5.04,30.38-14.2,42.59   L736,819.83c-2.6,3.46-4,7.67-4,12v44H580v-91.65c0-15.8,5.92-30.87,16.67-42.45l155.92-167.91c4.21-4.54,9.94-7.1,16.13-7.21   c6.15-0.14,12.01,2.23,16.39,6.61l4.36,4.36c3.93,3.93,6.12,8.99,6.54,14.17v0.08h0.01c0.45,5.91-1.41,11.98-5.63,16.72   L689.05,722.55l29.9,26.57l101.32-113.99c11.19-12.58,16.39-28.53,15.73-44.23V391.83c0-11.03,8.97-20,20-20s20,8.97,20,20V609.5z"/><path d="M300.73,546.61c-11.67-12.57-27.55-19.67-44.7-19.99c-9.89-0.2-19.4,1.89-28.02,6V391.83c0-33.08-26.92-60-60-60   s-60,26.92-60,60V609.5c0,23.86,7.88,47.51,22.2,66.59L252,838.5v57.33c0,11.04,8.94,19.99,19.98,20l192,0.17c0.01,0,0.01,0,0.02,0   c5.3,0,10.39-2.1,14.14-5.85c3.75-3.75,5.86-8.84,5.86-14.15V784.19c0-25.93-9.72-50.67-27.36-69.67L300.73,546.61z M444,875.98   l-152-0.13v-44.02c0-4.33-1.4-8.54-4-12L162.2,652.1c-9.16-12.21-14.2-27.33-14.2-42.59V391.83c0-11.03,8.97-20,20-20   s20,8.97,20,20V590.9c-0.67,15.71,4.54,31.65,15.73,44.23l101.32,113.99l29.9-26.57L233.62,608.56   c-4.22-4.74-6.08-10.81-5.63-16.72l0.01-0.08c0.41-5.18,2.6-10.24,6.54-14.17l4.36-4.36c4.38-4.38,10.16-6.75,16.39-6.61   c6.19,0.11,11.92,2.68,16.13,7.21l155.92,167.91c10.75,11.58,16.67,26.65,16.67,42.45V875.98z"/></g>
  </g><g data-name="business_name" fill="#857a7a" data="id:65" transform="translate(62.797930912311784,201.00450664304697) scale(2.4336552701505756)"><path d="M8.75,27.96875l-2.5,0l0-10.625q0-0.234375-0.01953125-0.5078125t-0.13671875-0.498046875t-0.37109375-0.380859375t-0.72265625-0.15625t-0.72265625,0.15625t-0.37109375,0.380859375t-0.13671875,0.498046875t-0.01953125,0.5078125l0,27.5q0,0.234375,0.01953125,0.556640625t0.13671875,0.615234375t0.37109375,0.498046875t0.72265625,0.205078125t0.72265625-0.205078125t0.37109375-0.498046875t0.13671875-0.615234375t0.01953125-0.556640625l0-12.5l-0.625,0l0-1.875l3.125,0l0,14.375q0,0.234375-0.05859375,0.849609375t-0.41015625,1.259765625t-1.11328125,1.142578125t-2.16796875,0.498046875t-2.16796875-0.498046875t-1.11328125-1.142578125t-0.41015625-1.259765625t-0.05859375-0.849609375l0-27.5q0-0.15625,0.01953125-0.46875t0.1171875-0.693359375t0.33203125-0.78125t0.64453125-0.732421875t1.0546875-0.537109375t1.58203125-0.205078125t1.58203125,0.205078125t1.0546875,0.537109375t0.64453125,0.732421875t0.33203125,0.78125t0.1171875,0.693359375t0.01953125,0.46875l0,10.625z M18.125,30.46875q0,0.9375-0.46875,1.4453125t-1.40625,0.72265625q0.9375,0.25390625,1.40625,0.76171875t0.46875,1.4453125l0,13.125l-2.5,0l0-13.125q0-0.46875-0.1171875-0.72265625t-0.3515625-0.37109375t-0.5859375-0.13671875t-0.8203125-0.01953125l0,14.375l-2.5,0l0-30l2.8125,0q1.26953125,0,2.177734375,0.205078125t1.396484375,0.72265625t0.48828125,1.572265625l0,10z M15.625,21.09375q0-0.46875-0.1171875-0.72265625t-0.3515625-0.37109375t-0.5859375-0.13671875t-0.8203125-0.01953125l0,11.875q0.46875,0,0.8203125-0.01953125t0.5859375-0.13671875t0.3515625-0.37109375t0.1171875-0.72265625l0-9.375z M27.5,47.96875l-2.5,0l-0.390625-6.484375l-1.73828125,0l-0.37109375,6.484375l-2.5,0l2.5-30l2.5,0z M24.47265625,39.453125l-0.72265625-15.234375l-0.7421875,15.234375l1.46484375,0z M36.875,47.96875l-1.875,0l-3.4375-17.5l0,17.5l-2.1875,0l0-30l1.875,0l3.45703125,18.125l0-18.125l2.16796875,0l0,30z M45.9375,17.96875l0,1.875l-2.5,0l0,28.125l-2.5,0l0-28.125l-2.5,0l0-1.875l7.5,0z  M59.00390625,14.21875l0,1.875l-2.5,0l0,31.875l-2.5,0l0-31.875l-2.5,0l0-1.875l7.5,0z M67.75390625,30.46875q0,0.9375-0.46875,1.4453125t-1.40625,0.72265625q0.9375,0.25390625,1.40625,0.76171875t0.46875,1.4453125l0,13.125l-2.5,0l0-13.125q0-0.46875-0.1171875-0.72265625t-0.3515625-0.37109375t-0.5859375-0.13671875t-0.8203125-0.01953125l0,14.375l-2.5,0l0-30l2.8125,0q1.26953125,0,2.177734375,0.205078125t1.396484375,0.72265625t0.48828125,1.572265625l0,10z M65.25390625,21.09375q0-0.46875-0.1171875-0.72265625t-0.3515625-0.37109375t-0.5859375-0.13671875t-0.8203125-0.01953125l0,11.875q0.46875,0,0.8203125-0.01953125t0.5859375-0.13671875t0.3515625-0.37109375t0.1171875-0.72265625l0-9.375z M77.12890625,47.96875l-2.5,0l-0.390625-6.484375l-1.73828125,0l-0.37109375,6.484375l-2.5,0l2.5-30l2.5,0z M74.1015625,39.453125l-0.72265625-15.234375l-0.7421875,15.234375l1.46484375,0z M86.50390625,30.46875l-2.5,0l0-9.6875q0-0.6640625-0.33203125-0.947265625t-0.76171875-0.283203125q-0.25390625,0-0.498046875,0.087890625t-0.44921875,0.25390625t-0.33203125,0.390625t-0.126953125,0.498046875l0,24.375q0,0.2734375,0.126953125,0.5078125t0.33203125,0.400390625t0.44921875,0.25390625t0.498046875,0.087890625q0.4296875,0,0.76171875-0.29296875t0.33203125-0.95703125l0-10.9375l2.5,0l0,10.9375q0,0.78125-0.33203125,1.376953125t-0.859375,0.99609375t-1.2109375,0.60546875t-1.38671875,0.205078125t-1.3671875-0.1953125t-1.19140625-0.595703125t-0.83984375-0.99609375t-0.3125-1.396484375l0-24.375q0-0.78125,0.322265625-1.38671875t0.849609375-0.99609375t1.2109375-0.595703125t1.38671875-0.205078125t1.3671875,0.1953125t1.19140625,0.595703125t0.849609375,0.99609375t0.322265625,1.396484375l0,9.6875z M95.87890625,47.96875l-2.5,0l-1.875-13.75l0,13.75l-2.5,0l0-30l2.5,0l0,13.75l1.875-13.75l2.5,0l-2.16796875,15z M102.75390625,19.84375l-2.5,0l0,11.25l2.5,0l0,1.875l-2.5,0l0,13.125l2.5,0l0,1.875l-5,0l0-30l5,0l0,1.875z M111.50390625,30.46875q0,0.9375-0.46875,1.4453125t-1.40625,0.72265625q0.9375,0.25390625,1.40625,0.76171875t0.46875,1.4453125l0,13.125l-2.5,0l0-13.125q0-0.46875-0.1171875-0.72265625t-0.3515625-0.37109375t-0.5859375-0.13671875t-0.8203125-0.01953125l0,14.375l-2.5,0l0-30l2.8125,0q1.26953125,0,2.177734375,0.205078125t1.396484375,0.72265625t0.48828125,1.572265625l0,10z M109.00390625,21.09375q0-0.46875-0.1171875-0.72265625t-0.3515625-0.37109375t-0.5859375-0.13671875t-0.8203125-0.01953125l0,11.875q0.46875,0,0.8203125-0.01953125t0.5859375-0.13671875t0.3515625-0.37109375t0.1171875-0.72265625l0-9.375z"/></g></svg>